<svg width="173" height="28" viewBox="0 0 173 28" fill="none" xmlns="http://www.w3.org/2000/svg">
<g clip-path="url(#clip0_190_518)">
<path d="M0.0154299 16.5365C-0.005289 16.8475 -0.00152193 17.1826 0.0154299 17.4937C0.103956 19.1563 1.30283 20.2159 2.44049 21.3464C3.57814 22.4768 4.39088 23.3259 5.54832 24.5052C6.70575 25.6834 7.42903 26.634 9.0564 27.257C10.6828 27.8811 12.5419 26.0052 14.0402 26.7862C15.5386 27.5663 17.4193 27.5308 18.8508 26.4914C20.0129 25.5016 21.0357 24.2076 22.1234 23.1173C23.2112 22.0279 24.4496 20.9492 25.4431 19.7909C26.1542 18.8194 26.3671 17.6535 26.3219 16.5049C26.2767 15.3562 25.0505 14.355 25.6532 13.304C26.2549 12.253 26.5158 11.0297 26.2277 9.9002C25.9395 8.77166 25.4196 8.07482 24.6191 7.32341C23.8176 6.57201 23.263 5.89049 22.5001 5.16971C21.7373 4.44894 21.1431 3.70807 20.3812 3.01602C19.6193 2.32396 19.0627 1.40601 18.1181 1.00877C17.1744 0.611532 15.7128 0.18462 14.7098 0.84126C13.7059 1.49694 12.7623 1.55629 11.7574 0.869018C10.7516 0.182707 9.21745 0.58856 8.27473 1.00111C7.33109 1.41271 6.718 2.25313 5.97212 2.96816C5.22528 3.68223 4.64516 4.33982 3.90023 5.074C3.15527 5.80818 2.55443 6.46002 1.78125 7.22769C1.009 7.99632 0.386486 8.71231 0.107723 9.83415C-0.171982 10.955 0.11714 12.3631 0.696327 13.3557C1.27457 14.3483 0.0851206 15.4989 0.0154299 16.5365ZM13.7652 2.46563C15.1421 3.32328 16.1573 4.97923 17.3675 6.07905C18.5767 7.17984 19.8632 8.48736 20.9462 9.71642C22.0292 10.9455 23.6613 11.984 24.5015 13.3777C25.2707 14.6546 22.9993 15.9497 22.2175 16.8954C21.436 17.8411 20.061 19.0855 19.1569 20.0063C18.2518 20.9262 17.0473 22.3007 16.0961 23.1173C15.1459 23.9347 13.8679 26.2645 12.5409 25.4384C11.1792 24.5902 10.1818 22.9631 8.98577 21.8728C7.78972 20.7826 6.52588 19.5057 5.45413 18.2834C4.38241 17.061 2.73432 16.009 1.89897 14.6221C1.0881 13.2772 3.32856 12.0175 4.13567 11.0565C4.94369 10.0955 6.28666 8.86163 7.1964 7.9456C8.10617 7.0286 9.31822 5.6263 10.2572 4.8347C11.1961 4.04309 12.4986 1.67689 13.7652 2.46563Z" fill="black"/>
<path d="M44.2362 14.0019C45.0925 14.3143 45.7511 14.8275 46.2341 15.4969C46.7171 16.1886 46.9586 16.9696 46.9586 17.8176C46.9586 19.268 46.4756 20.3837 45.5535 21.187C44.6314 21.9903 43.2703 22.3696 41.5139 22.3696H34.2031V6.48202H41.2724C42.897 6.48202 44.1484 6.86136 45.0266 7.62004C45.8828 8.37872 46.3219 9.38285 46.3219 10.5878C46.3219 12.1498 45.6194 13.2878 44.2362 14.0019ZM41.0529 8.95888H37.167V13.1093H41.0529C41.7993 13.1093 42.3701 12.9308 42.7653 12.5514C43.1605 12.1721 43.38 11.6366 43.38 10.9671C43.38 10.3424 43.1605 9.85145 42.7653 9.49442C42.3482 9.1374 41.7774 8.95888 41.0529 8.95888ZM37.167 19.8705H41.3602C42.1945 19.8705 42.8312 19.6919 43.2703 19.3126C43.7093 18.9333 43.9289 18.3977 43.9289 17.6837C43.9289 16.211 43.0727 15.4746 41.3602 15.4746H37.167V19.8705ZM58.8583 22.3696H56.092C55.9603 22.1465 55.8505 21.6779 55.7847 20.9638C55.0163 22.0795 53.8088 22.6374 52.1402 22.6374C50.8888 22.6374 49.9009 22.3473 49.1544 21.7225C48.408 21.12 48.0567 20.2721 48.0567 19.1787C48.0567 17.0812 49.5057 15.8986 52.4037 15.5862L54.1161 15.43C54.6869 15.363 55.0821 15.2291 55.3456 15.0283C55.5871 14.8275 55.7188 14.5151 55.7188 14.1134C55.7188 13.6225 55.5432 13.2655 55.2358 13.0424C54.9284 12.8192 54.4015 12.6853 53.6551 12.6853C52.8428 12.6853 52.272 12.8415 51.9207 13.1093C51.5694 13.3771 51.3499 13.8457 51.306 14.5151H48.5836C48.7373 11.9043 50.4278 10.5878 53.677 10.5878C56.8165 10.5878 58.3972 11.7481 58.3972 14.0465V20.1829C58.3972 21.2093 58.5509 21.9233 58.8583 22.3696ZM52.7989 20.6291C53.6551 20.6291 54.3576 20.406 54.9065 19.9151C55.4334 19.4242 55.7188 18.7324 55.7188 17.8176V16.7688C55.4553 17.0143 55.0163 17.1705 54.4235 17.2374L52.9306 17.4159C52.1841 17.5052 51.6572 17.6837 51.3499 17.9514C51.0425 18.2192 50.8888 18.5762 50.8888 19.0671C50.8888 19.5581 51.0425 19.9597 51.3718 20.2275C51.7012 20.4952 52.1841 20.6291 52.7989 20.6291ZM65.0485 22.682C61.7334 22.682 59.999 21.3655 59.8673 18.7101H62.5677C62.6335 19.4242 62.8531 19.9374 63.2482 20.2275C63.6434 20.5399 64.2581 20.6738 65.0924 20.6738C66.5853 20.6738 67.3317 20.2275 67.3317 19.2903C67.3317 18.8886 67.1561 18.5539 66.8487 18.3308C66.5194 18.1076 65.9486 17.9291 65.1144 17.7729L63.8191 17.5498C61.3382 17.1481 60.1088 15.9878 60.1088 14.0688C60.1088 12.9977 60.504 12.1498 61.3382 11.525C62.1505 10.9002 63.3141 10.5878 64.807 10.5878C68.0343 10.5878 69.7028 11.9043 69.8126 14.4928H67.2C67.1561 13.8233 66.9585 13.3324 66.5633 13.0424C66.1682 12.7523 65.5754 12.5961 64.807 12.5961C63.4897 12.5961 62.8311 13.0424 62.8311 13.9349C62.8311 14.3366 62.9628 14.6267 63.2702 14.8498C63.5556 15.0729 64.0386 15.2291 64.7192 15.3407L66.1462 15.5638C67.5074 15.8316 68.5173 16.2333 69.132 16.7688C69.7467 17.3267 70.076 18.0853 70.076 19.0671C70.076 20.2275 69.6369 21.12 68.7588 21.7448C67.8806 22.3696 66.6292 22.682 65.0485 22.682ZM82.2394 16.8134V17.4829H73.765C73.8528 18.4647 74.1602 19.2233 74.6651 19.7143C75.1701 20.2052 75.8507 20.4506 76.7069 20.4506C77.9583 20.4506 78.8145 19.9151 79.2975 18.7994H81.954C81.6466 19.982 81.0319 20.9192 80.1098 21.6109C79.1658 22.3027 78.0242 22.6374 76.6849 22.6374C74.9945 22.6374 73.6333 22.1019 72.6014 20.9862C71.5476 19.8928 71.0427 18.4424 71.0427 16.6126C71.0427 14.8052 71.5476 13.3548 72.5795 12.239C73.6113 11.1457 74.9725 10.5878 76.641 10.5878C78.3535 10.5878 79.7146 11.168 80.7245 12.306C81.7344 13.4663 82.2394 14.9614 82.2394 16.8134ZM76.6191 12.7746C74.9945 12.7746 74.0504 13.6895 73.787 15.5192H79.4731C79.3414 14.6713 79.034 14.0019 78.5511 13.511C78.0461 13.02 77.4094 12.7746 76.6191 12.7746ZM95.833 22.7267C93.5718 22.7267 91.7495 21.9903 90.3664 20.4729C88.9613 18.9779 88.2588 16.9696 88.2588 14.4258C88.2588 11.882 88.9394 9.87376 90.3445 8.35641C91.7056 6.88368 93.5498 6.125 95.833 6.125C97.6553 6.125 99.214 6.63822 100.509 7.62004C101.783 8.62417 102.595 10.0746 102.924 11.949H99.9165C99.6531 10.9225 99.1482 10.1192 98.4456 9.58368C97.7431 9.04814 96.8649 8.75806 95.833 8.75806C94.428 8.75806 93.3303 9.27128 92.5399 10.2754C91.7495 11.2795 91.3544 12.663 91.3544 14.4258C91.3544 16.211 91.7495 17.6167 92.5399 18.5986C93.3303 19.6027 94.428 20.0936 95.833 20.0936C96.9088 20.0936 97.8309 19.7812 98.6213 19.1118C99.3897 18.4647 99.8507 17.5498 100.026 16.3895H102.99C102.793 18.42 102.024 19.982 100.663 21.0754C99.3018 22.1911 97.6992 22.7267 95.833 22.7267ZM114.112 20.9862C113.059 22.1019 111.654 22.6374 109.941 22.6374C108.207 22.6374 106.824 22.1019 105.77 20.9862C104.694 19.9151 104.167 18.4424 104.167 16.6126C104.167 14.7829 104.694 13.3324 105.77 12.239C106.824 11.1457 108.207 10.5878 109.941 10.5878C111.654 10.5878 113.059 11.1457 114.112 12.2167C115.166 13.3101 115.693 14.7829 115.693 16.6126C115.693 18.4424 115.166 19.8928 114.112 20.9862ZM109.941 20.3167C110.863 20.3167 111.566 20.0043 112.093 19.3572C112.62 18.7101 112.883 17.7952 112.883 16.6126C112.883 15.4523 112.62 14.5374 112.093 13.8903C111.566 13.2432 110.863 12.9085 109.941 12.9085C109.019 12.9085 108.295 13.2432 107.768 13.868C107.241 14.5151 106.999 15.43 106.999 16.6126C106.999 17.8176 107.241 18.7324 107.768 19.3572C108.295 20.0043 109.019 20.3167 109.941 20.3167ZM123.642 10.5878C124.871 10.5878 125.837 10.9671 126.54 11.6812C127.242 12.3952 127.615 13.4217 127.615 14.7382V22.3696H124.849V15.2068C124.849 13.7564 124.125 13.02 122.72 13.02C122.017 13.02 121.402 13.2878 120.919 13.801C120.436 14.3143 120.195 15.0283 120.195 15.9209V22.3696H117.429V10.8556H120.107V12.5068C120.963 11.2349 122.149 10.5878 123.642 10.5878ZM136.077 10.5878C137.306 10.5878 138.272 10.9671 138.975 11.6812C139.677 12.3952 140.051 13.4217 140.051 14.7382V22.3696H137.284V15.2068C137.284 13.7564 136.56 13.02 135.155 13.02C134.452 13.02 133.838 13.2878 133.355 13.801C132.872 14.3143 132.63 15.0283 132.63 15.9209V22.3696H129.864V10.8556H132.542V12.5068C133.398 11.2349 134.584 10.5878 136.077 10.5878ZM152.99 16.8134V17.4829H144.516C144.604 18.4647 144.911 19.2233 145.416 19.7143C145.921 20.2052 146.602 20.4506 147.458 20.4506C148.709 20.4506 149.566 19.9151 150.049 18.7994H152.705C152.398 19.982 151.783 20.9192 150.861 21.6109C149.917 22.3027 148.775 22.6374 147.436 22.6374C145.746 22.6374 144.384 22.1019 143.353 20.9862C142.299 19.8928 141.794 18.4424 141.794 16.6126C141.794 14.8052 142.299 13.3548 143.331 12.239C144.362 11.1457 145.724 10.5878 147.392 10.5878C149.105 10.5878 150.466 11.168 151.476 12.306C152.486 13.4663 152.99 14.9614 152.99 16.8134ZM147.37 12.7746C145.746 12.7746 144.801 13.6895 144.538 15.5192H150.224C150.092 14.6713 149.785 14.0019 149.302 13.511C148.797 13.02 148.16 12.7746 147.37 12.7746ZM159.87 22.6374C158.202 22.6374 156.84 22.1019 155.809 20.9862C154.777 19.9151 154.272 18.4424 154.272 16.6126C154.272 14.7829 154.777 13.3101 155.809 12.2167C156.818 11.1457 158.158 10.5878 159.87 10.5878C161.341 10.5878 162.548 10.9895 163.493 11.7928C164.415 12.5961 164.963 13.6671 165.139 15.006H162.373C162.241 14.3366 161.956 13.8233 161.517 13.4663C161.078 13.1093 160.529 12.9308 159.87 12.9308C158.992 12.9308 158.311 13.2655 157.828 13.8903C157.345 14.5151 157.104 15.43 157.104 16.6126C157.104 17.8176 157.345 18.7324 157.85 19.3572C158.333 19.982 159.014 20.2944 159.87 20.2944C160.529 20.2944 161.099 20.1159 161.561 19.7366C162.022 19.3572 162.307 18.7994 162.417 18.0853H165.183C165.029 19.4688 164.48 20.5845 163.514 21.4101C162.548 22.2357 161.319 22.6374 159.87 22.6374ZM172.324 10.8556V12.9977H170.085V19.2233C170.085 19.6027 170.173 19.8705 170.37 20.0043C170.568 20.1605 170.897 20.2275 171.38 20.2275H172.324V22.3696C171.71 22.4366 171.227 22.4589 170.875 22.4589C169.646 22.4589 168.746 22.2357 168.175 21.7672C167.604 21.2986 167.341 20.5399 167.341 19.5134V12.9977H165.584V10.8556H167.341V7.50847H170.085V10.8556H172.324Z" fill="black"/>
</g>
<defs>
<clipPath id="clip0_190_518">
<rect width="173" height="27" fill="white" transform="translate(0 0.5)"/>
</clipPath>
</defs>
</svg>
