<svg width="427" height="429" viewBox="0 0 427 429" fill="none" xmlns="http://www.w3.org/2000/svg">
<path d="M0.250086 255.727C-0.0857239 260.688 -0.0246676 266.03 0.250086 270.991C1.68491 297.505 21.1161 314.402 39.5551 332.429C57.9941 350.456 71.167 363.995 89.9266 382.801C108.686 401.591 120.409 416.748 146.785 426.685C173.146 436.637 203.278 406.719 227.563 419.175C251.848 431.615 282.33 431.05 305.532 414.474C324.368 398.69 340.944 378.053 358.574 360.668C376.204 343.297 396.277 326.095 412.38 307.625C423.905 292.132 427.354 273.54 426.622 255.223C425.889 236.907 406.015 220.94 415.784 204.18C425.538 187.42 429.766 167.913 425.095 149.901C420.424 131.905 411.999 120.793 399.024 108.81C386.035 96.828 377.044 85.96 364.68 74.4661C352.316 62.9723 342.685 51.1579 330.336 40.1219C317.987 29.086 308.966 14.4477 293.656 8.11315C278.362 1.77855 254.672 -5.02923 238.416 5.44193C222.144 15.8978 206.849 16.8442 190.563 5.8846C174.261 -5.05975 149.395 1.41223 134.116 7.99105C118.821 14.5546 108.885 27.9565 96.7954 39.3587C84.691 50.7457 75.2883 61.2322 63.2144 72.9397C51.1405 84.6473 41.4021 95.0421 28.8702 107.284C16.3537 119.541 6.26413 130.958 1.74596 148.848C-2.78747 166.722 1.8986 189.176 11.286 205.005C20.6582 220.833 1.37963 239.181 0.250086 255.727ZM223.106 31.3451C245.422 45.0217 261.876 71.4286 281.491 88.967C301.09 106.521 321.941 127.371 339.494 146.971C357.048 166.57 383.501 183.131 397.116 205.356C409.587 225.718 372.77 246.37 360.101 261.451C347.432 276.532 325.146 296.375 310.493 311.059C295.824 325.728 276.301 347.647 260.884 360.668C245.483 373.703 224.769 410.856 203.262 397.683C181.191 384.159 165.026 358.21 145.64 340.824C126.255 323.439 105.771 303.076 88.4002 283.584C71.0296 264.092 44.3175 247.317 30.7783 225.199C17.6359 203.753 53.9491 183.665 67.0304 168.34C80.127 153.015 101.894 133.34 116.639 118.732C131.384 104.109 151.029 81.7471 166.247 69.1237C181.465 56.5003 202.576 18.7675 223.106 31.3451Z" fill="#4D88FF"/>
</svg>
