<svg width="49" height="48" viewBox="0 0 49 48" fill="none" xmlns="http://www.w3.org/2000/svg">
<path d="M14.332 22H18.332V26H14.332V22ZM14.332 30H18.332V34H14.332V30ZM22.332 22H26.332V26H22.332V22ZM22.332 30H26.332V34H22.332V30ZM30.332 22H34.332V26H30.332V22ZM30.332 30H34.332V34H30.332V30Z" fill="#86B4F6" fill-opacity="0.85098"/>
<path d="M10.332 44H38.332C40.538 44 42.332 42.206 42.332 40V12C42.332 9.794 40.538 8 38.332 8H34.332V4H30.332V8H18.332V4H14.332V8H10.332C8.12603 8 6.33203 9.794 6.33203 12V40C6.33203 42.206 8.12603 44 10.332 44ZM38.332 16L38.334 40H10.332V16H38.332Z" fill="#86B4F6" fill-opacity="0.85098"/>
</svg>
