<svg width="48" height="49" viewBox="0 0 48 49" fill="none" xmlns="http://www.w3.org/2000/svg">
<path d="M38 6.5H10C8.93913 6.5 7.92172 6.92143 7.17157 7.67157C6.42143 8.42172 6 9.43913 6 10.5V38.5C6 39.5609 6.42143 40.5783 7.17157 41.3284C7.92172 42.0786 8.93913 42.5 10 42.5H38C39.0609 42.5 40.0783 42.0786 40.8284 41.3284C41.5786 40.5783 42 39.5609 42 38.5V10.5C42 9.43913 41.5786 8.42172 40.8284 7.67157C40.0783 6.92143 39.0609 6.5 38 6.5ZM38 10.5V38.5H10V10.5H38ZM20 34.5L12 26.5L14.82 23.66L20 28.84L33.18 15.66L36 18.5" fill="#86B4F6" fill-opacity="0.85098"/>
</svg>
