<svg width="49" height="48" viewBox="0 0 49 48" fill="none" xmlns="http://www.w3.org/2000/svg">
<path d="M40.668 34V14C40.668 9.664 33.342 6 24.668 6C15.994 6 8.66797 9.664 8.66797 14V34C8.66797 38.336 15.994 42 24.668 42C33.342 42 40.668 38.336 40.668 34ZM24.668 10C32.05 10 36.53 13.014 36.668 13.988C36.53 14.986 32.05 18 24.668 18C17.286 18 12.806 14.986 12.668 14.012C12.806 13.014 17.286 10 24.668 10ZM12.668 19.214C15.626 20.908 19.942 22 24.668 22C29.394 22 33.71 20.908 36.668 19.214V23.988C36.53 24.986 32.05 28 24.668 28C17.286 28 12.806 24.986 12.668 24V19.214ZM12.668 34V29.214C15.626 30.908 19.942 32 24.668 32C29.394 32 33.71 30.908 36.668 29.214V33.988C36.53 34.986 32.05 38 24.668 38C17.286 38 12.806 34.986 12.668 34Z" fill="#86B4F6" fill-opacity="0.85098"/>
</svg>
