<svg width="48" height="49" viewBox="0 0 48 49" fill="none" xmlns="http://www.w3.org/2000/svg">
<path d="M16 40.5H32V34.5C32 32.3 31.2167 30.4167 29.65 28.85C28.0833 27.2833 26.2 26.5 24 26.5C21.8 26.5 19.9167 27.2833 18.35 28.85C16.7833 30.4167 16 32.3 16 34.5V40.5ZM24 22.5C26.2 22.5 28.0833 21.7167 29.65 20.15C31.2167 18.5833 32 16.7 32 14.5V8.5H16V14.5C16 16.7 16.7833 18.5833 18.35 20.15C19.9167 21.7167 21.8 22.5 24 22.5ZM8 44.5V40.5H12V34.5C12 32.4667 12.4753 30.558 13.426 28.774C14.3767 26.99 15.7013 25.5653 17.4 24.5C15.7 23.4333 14.3753 22.0087 13.426 20.226C12.4767 18.4433 12.0013 16.5347 12 14.5V8.5H8V4.5H40V8.5H36V14.5C36 16.5333 35.5253 18.442 34.576 20.226C33.6267 22.01 32.3013 23.4347 30.6 24.5C32.3 25.5667 33.6253 26.992 34.576 28.776C35.5267 30.56 36.0013 32.468 36 34.5V40.5H40V44.5H8Z" fill="#86B4F6" fill-opacity="0.85098"/>
</svg>
