<svg width="36" height="36" viewBox="0 0 36 36" fill="none" xmlns="http://www.w3.org/2000/svg">
<path d="M4 36C2.9 36 1.95867 35.6087 1.176 34.826C0.393333 34.0433 0.00133333 33.1013 0 32V4C0 2.9 0.392 1.95867 1.176 1.176C1.96 0.393333 2.90133 0.00133333 4 0H32C33.1 0 34.042 0.392 34.826 1.176C35.61 1.96 36.0013 2.90133 36 4V32C36 33.1 35.6087 34.042 34.826 34.826C34.0433 35.61 33.1013 36.0013 32 36H4ZM18 26C19.2667 26 20.4167 25.6333 21.45 24.9C22.4833 24.1667 23.2 23.2 23.6 22H32V4H4V22H12.4C12.8 23.2 13.5167 24.1667 14.55 24.9C15.5833 25.6333 16.7333 26 18 26Z" fill="#86B4F6" fill-opacity="0.85098"/>
</svg>
