<svg width="49" height="48" viewBox="0 0 49 48" fill="none" xmlns="http://www.w3.org/2000/svg">
<path d="M39.532 42L26.932 29.4C25.932 30.2 24.782 30.8333 23.482 31.3C22.182 31.7667 20.7987 32 19.332 32C15.6987 32 12.624 30.7413 10.108 28.224C7.59203 25.7067 6.33337 22.632 6.33203 19C6.3307 15.368 7.58937 12.2933 10.108 9.776C12.6267 7.25867 15.7014 6 19.332 6C22.9627 6 26.038 7.25867 28.558 9.776C31.078 12.2933 32.336 15.368 32.332 19C32.332 20.4667 32.0987 21.85 31.632 23.15C31.1654 24.45 30.532 25.6 29.732 26.6L42.332 39.2L39.532 42ZM19.332 28C21.832 28 23.9574 27.1253 25.708 25.376C27.4587 23.6267 28.3334 21.5013 28.332 19C28.3307 16.4987 27.456 14.374 25.708 12.626C23.96 10.878 21.8347 10.0027 19.332 10C16.8294 9.99733 14.7047 10.8727 12.958 12.626C11.2114 14.3793 10.336 16.504 10.332 19C10.328 21.496 11.2034 23.6213 12.958 25.376C14.7127 27.1307 16.8374 28.0053 19.332 28Z" fill="#86B4F6" fill-opacity="0.85098"/>
</svg>
